<svg xmlns="http://www.w3.org/2000/svg" viewBox="0 0 800 400">
  <!-- Background -->
  <rect width="800" height="400" fill="#f8fafc" rx="10" ry="10"/>
  
  <!-- Header -->
  <rect x="0" y="0" width="800" height="60" fill="#1e293b" rx="10" ry="10"/>
  <text x="400" y="40" font-family="Arial, sans-serif" font-size="24" fill="white" text-anchor="middle" font-weight="bold">SSP-DF Strategic Dashboard</text>

  <!-- Core System Circle -->
  <circle cx="400" cy="230" r="70" fill="#3b82f6" stroke="#1d4ed8" stroke-width="4"/>
  <text x="400" y="225" font-family="Arial, sans-serif" font-size="16" fill="white" text-anchor="middle" font-weight="bold">Core System</text>
  <text x="400" y="245" font-family="Arial, sans-serif" font-size="12" fill="#dbeafe" text-anchor="middle">(React + Vite)</text>

  <!-- Modules -->
  <!-- Overview -->
  <rect x="50" y="100" width="180" height="80" rx="8" fill="white" stroke="#cbd5e1" stroke-width="2"/>
  <text x="140" y="135" font-family="Arial, sans-serif" font-size="14" fill="#334155" text-anchor="middle" font-weight="bold">Visão Geral</text>
  <text x="140" y="155" font-family="Arial, sans-serif" font-size="12" fill="#64748b" text-anchor="middle">KPIs & Analytics</text>
  
  <!-- Allocation -->
  <rect x="570" y="100" width="180" height="80" rx="8" fill="white" stroke="#cbd5e1" stroke-width="2"/>
  <text x="660" y="135" font-family="Arial, sans-serif" font-size="14" fill="#334155" text-anchor="middle" font-weight="bold">Alocação</text>
  <text x="660" y="155" font-family="Arial, sans-serif" font-size="12" fill="#64748b" text-anchor="middle">Geoespacial & Efetivo</text>

  <!-- Competencies -->
  <rect x="50" y="280" width="180" height="80" rx="8" fill="white" stroke="#cbd5e1" stroke-width="2"/>
  <text x="140" y="315" font-family="Arial, sans-serif" font-size="14" fill="#334155" text-anchor="middle" font-weight="bold">Competências</text>
  <text x="140" y="335" font-family="Arial, sans-serif" font-size="12" fill="#64748b" text-anchor="middle">Gaps & Treinamento</text>

  <!-- Reports -->
  <rect x="570" y="280" width="180" height="80" rx="8" fill="white" stroke="#cbd5e1" stroke-width="2"/>
  <text x="660" y="315" font-family="Arial, sans-serif" font-size="14" fill="#334155" text-anchor="middle" font-weight="bold">Relatórios</text>
  <text x="660" y="335" font-family="Arial, sans-serif" font-size="12" fill="#64748b" text-anchor="middle">Exportação & Dados</text>

  <!-- Connectors -->
  <line x1="230" y1="140" x2="350" y2="190" stroke="#94a3b8" stroke-width="2"/>
  <line x1="570" y1="140" x2="450" y2="190" stroke="#94a3b8" stroke-width="2"/>
  <line x1="230" y1="320" x2="350" y2="270" stroke="#94a3b8" stroke-width="2"/>
  <line x1="570" y1="320" x2="450" y2="270" stroke="#94a3b8" stroke-width="2"/>

</svg>